<svg xmlns="http://www.w3.org/2000/svg" viewBox="0 0 100 100">
  <circle cx="50" cy="50" r="45" stroke-width="10" stroke="#005a9c" fill="#fff"/>
  <g style="line-height:125%">
    <path d="M73.172 77.167h-9.13v-5.81q-1.22.83-3.32 2.343-2.05 1.465-4.003 2.344-2.295 1.123-5.273 1.855-2.978.781-6.982.781-7.372 0-12.498-4.882-5.127-4.882-5.127-12.45 0-6.2 2.637-10.009 2.685-3.857 7.616-6.054 4.98-2.197 11.961-2.978 6.982-.78 14.99-1.171V39.72q0-3.125-1.124-5.176-1.074-2.05-3.125-3.222-1.952-1.123-4.687-1.513-2.734-.39-5.712-.39-3.613 0-8.056.976-4.442.927-9.178 2.734h-.488v-9.326q2.685-.732 7.762-1.61 5.078-.88 10.01-.88 5.76 0 10.008.977 4.296.928 7.42 3.222 3.077 2.246 4.688 5.81 1.61 3.564 1.61 8.837zm-9.13-13.427V48.557q-4.199.244-9.911.732-5.663.488-8.983 1.416-3.955 1.123-6.396 3.515-2.441 2.343-2.441 6.493 0 4.687 2.831 7.08 2.832 2.343 8.642 2.343 4.834 0 8.837-1.855 4.003-1.904 7.421-4.54z" style="-inkscape-font-specification:Verdana" font-family="Verdana" aria-label="a" font-weight="400" font-size="40" letter-spacing="0" word-spacing="0" fill="none" stroke="#005a9c" stroke-width="1.8997872"/>
  </g>
  <path d="M36.29 49.089V73.78M26.811 48.313l-.08 24.697M31.28 78.723l25.68-.04M36.656 41.217l27.386-.081-.131-9.641M73.145 39.55V21.528" fill="none" stroke="#005a9c" stroke-width="1.9"/>
  <path d="M51.86 21.345A2.654 2.654 0 0 1 49.28 24a2.654 2.654 0 0 1-2.725-2.506 2.654 2.654 0 0 1 2.429-2.793 2.654 2.654 0 0 1 2.86 2.35M34.347 23.807a2.654 2.654 0 0 1-2.58 2.653 2.654 2.654 0 0 1-2.724-2.506 2.654 2.654 0 0 1 2.428-2.793 2.654 2.654 0 0 1 2.86 2.35M34.185 33.163a2.654 2.654 0 0 1-2.58 2.653 2.654 2.654 0 0 1-2.725-2.505 2.654 2.654 0 0 1 2.429-2.793 2.654 2.654 0 0 1 2.86 2.35M52.165 29.481a2.654 2.654 0 0 1-2.58 2.654 2.654 2.654 0 0 1-2.725-2.506 2.654 2.654 0 0 1 2.429-2.793 2.654 2.654 0 0 1 2.86 2.35M66.565 41.258a2.654 2.654 0 0 1-2.58 2.653 2.654 2.654 0 0 1-2.724-2.505 2.654 2.654 0 0 1 2.428-2.793 2.654 2.654 0 0 1 2.86 2.35M75.8 39.753a2.654 2.654 0 0 1-2.581 2.653 2.654 2.654 0 0 1-2.724-2.505 2.654 2.654 0 0 1 2.428-2.793 2.654 2.654 0 0 1 2.86 2.35M38.944 61.435a2.654 2.654 0 0 1-2.58 2.653 2.654 2.654 0 0 1-2.724-2.506 2.654 2.654 0 0 1 2.428-2.792 2.654 2.654 0 0 1 2.86 2.35M66.565 48.458a2.654 2.654 0 0 1-2.58 2.653 2.654 2.654 0 0 1-2.724-2.505 2.654 2.654 0 0 1 2.428-2.793 2.654 2.654 0 0 1 2.86 2.35M66.565 63.631a2.654 2.654 0 0 1-2.58 2.654 2.654 2.654 0 0 1-2.724-2.506 2.654 2.654 0 0 1 2.428-2.793 2.654 2.654 0 0 1 2.86 2.35M29.425 60.662a2.654 2.654 0 0 1-2.58 2.653 2.654 2.654 0 0 1-2.724-2.505 2.654 2.654 0 0 1 2.428-2.793 2.654 2.654 0 0 1 2.86 2.35M46.775 78.703a2.654 2.654 0 0 1-2.58 2.653 2.654 2.654 0 0 1-2.725-2.505 2.654 2.654 0 0 1 2.429-2.793 2.654 2.654 0 0 1 2.86 2.35M66.728 71.238a2.654 2.654 0 0 1-2.58 2.654 2.654 2.654 0 0 1-2.725-2.506 2.654 2.654 0 0 1 2.429-2.793 2.654 2.654 0 0 1 2.86 2.35M66.565 77.177a2.654 2.654 0 0 1-2.58 2.654 2.654 2.654 0 0 1-2.724-2.506 2.654 2.654 0 0 1 2.428-2.793 2.654 2.654 0 0 1 2.86 2.35M75.8 77.177a2.654 2.654 0 0 1-2.581 2.654 2.654 2.654 0 0 1-2.724-2.506 2.654 2.654 0 0 1 2.428-2.793 2.654 2.654 0 0 1 2.86 2.35" fill="#005a9c"/>
</svg>
